# This file uses centimeters as units for non-parametric coordinates.

mtllib CylinderGranite.mtl
v 0.432383 -6.333182 -1.029720
v 0.255449 -6.333182 -1.087210
v 0.070429 -6.333182 -1.067763
v 0.144663 -6.285057 -1.288656
v 0.200430 -6.153468 -1.449908
v 0.222788 -5.973676 -1.508310
v 0.401352 -5.975057 -1.527477
v 0.571628 -5.976564 -1.473006
v 0.704135 -5.977935 -1.354212
v 0.688606 -6.155604 -1.293338
v 0.639740 -6.285644 -1.128993
v 0.570638 -6.333182 -0.905235
v -0.845708 -6.333182 -0.729422
v -0.955060 -6.333182 -0.578913
v -0.993739 -6.333182 -0.396939
v -1.180882 -6.285057 -0.535799
v -1.317008 -6.153468 -0.638667
v -1.365643 -5.973676 -0.677978
v -1.328692 -5.975057 -0.853725
v -1.224269 -5.976564 -0.998834
v -1.070343 -5.977935 -1.088146
v -1.017247 -6.155604 -1.054567
v -0.876045 -6.285644 -0.957307
v -0.684593 -6.333182 -0.822442
v -0.955060 -6.333182 0.578913
v -0.845708 -6.333182 0.729422
v -0.684593 -6.333182 0.822442
v -0.874488 -6.285057 0.957514
v -1.014386 -6.153468 1.055190
v -1.066802 -5.973676 1.089297
v -1.222529 -5.975057 0.999846
v -1.328267 -5.976564 0.855692
v -1.365643 -5.977935 0.681701
v -1.317299 -6.155604 0.641580
v -1.181166 -6.285644 0.537344
v -0.993739 -6.333182 0.396939
v 0.255449 -6.333182 1.087209
v 0.432383 -6.333182 1.029720
v 0.570637 -6.333182 0.905235
v 0.640419 -6.285057 1.127575
v 0.690083 -6.153468 1.290810
v 0.706323 -5.973676 1.351200
v 0.573127 -5.975057 1.471663
v 0.403355 -5.976564 1.527681
v 0.226329 -5.977935 1.509460
v 0.203111 -6.155604 1.451085
v 0.146045 -6.285644 1.289404
v 0.070429 -6.333182 1.067763
v 1.112936 -6.333182 0.093020
v 1.112936 -6.333182 -0.093020
v 1.037267 -6.333182 -0.262975
v 1.270288 -6.285057 -0.260634
v 1.440881 -6.153468 -0.257426
v 1.503333 -5.973676 -0.254209
v 1.576741 -5.975057 -0.090308
v 1.577554 -5.976564 0.088466
v 1.505522 -5.977935 0.251197
v 1.442829 -6.155604 0.255240
v 1.271426 -6.285644 0.259551
v 1.037267 -6.333182 0.262975
v 0.255449 6.333182 -1.087210
v 0.432383 6.333182 -1.029720
v 0.570638 6.333182 -0.905235
v 0.640419 6.285057 -1.127575
v 0.690083 6.153468 -1.290810
v 0.706323 5.973676 -1.351200
v 0.573128 5.975057 -1.471664
v 0.403355 5.976564 -1.527681
v 0.226329 5.977935 -1.509461
v 0.203111 6.155604 -1.451085
v 0.146045 6.285644 -1.289404
v 0.070429 6.333182 -1.067763
v -0.955060 6.333182 -0.578913
v -0.845708 6.333182 -0.729422
v -0.684593 6.333182 -0.822442
v -0.874487 6.285057 -0.957514
v -1.014386 6.153468 -1.055191
v -1.066802 5.973676 -1.089297
v -1.222529 5.975057 -0.999846
v -1.328267 5.976564 -0.855693
v -1.365643 5.977935 -0.681701
v -1.317299 6.155604 -0.641580
v -1.181166 6.285644 -0.537345
v -0.993739 6.333182 -0.396939
v -0.845708 6.333182 0.729422
v -0.955060 6.333182 0.578913
v -0.993739 6.333182 0.396939
v -1.180882 6.285057 0.535799
v -1.317008 6.153468 0.638667
v -1.365643 5.973676 0.677978
v -1.328692 5.975057 0.853725
v -1.224269 5.976564 0.998834
v -1.070343 5.977935 1.088146
v -1.017247 6.155604 1.054567
v -0.876045 6.285644 0.957307
v -0.684593 6.333182 0.822442
v 0.432383 6.333182 1.029720
v 0.255449 6.333182 1.087209
v 0.070429 6.333182 1.067763
v 0.144662 6.285057 1.288656
v 0.200430 6.153468 1.449908
v 0.222788 5.973676 1.508310
v 0.401352 5.975057 1.527477
v 0.571627 5.976564 1.473006
v 0.704135 5.977935 1.354212
v 0.688606 6.155604 1.293338
v 0.639740 6.285644 1.128992
v 0.570637 6.333182 0.905235
v 1.112936 6.333182 -0.093020
v 1.112936 6.333182 0.093020
v 1.037267 6.333182 0.262975
v 1.270288 6.285057 0.260634
v 1.440881 6.153468 0.257426
v 1.503333 5.973676 0.254209
v 1.576741 5.975057 0.090308
v 1.577554 5.976564 -0.088466
v 1.505522 5.977935 -0.251197
v 1.442829 6.155604 -0.255240
v 1.271426 6.285644 -0.259551
v 1.037267 6.333182 -0.262975
v 0.316870 -6.333182 -0.087078
v 0.316870 -6.333182 0.087078
v 0.354035 -6.333182 0.257221
v 0.180734 -6.333182 0.274453
v 0.015102 -6.333182 0.328270
v -0.135229 -6.333182 0.416193
v -0.205170 -6.333182 0.256699
v -0.307536 -6.333182 0.115804
v -0.437611 -6.333182 -0.000000
v -0.307536 -6.333182 -0.115804
v -0.205170 -6.333182 -0.256699
v -0.135229 -6.333182 -0.416193
v 0.015102 -6.333182 -0.328270
v 0.180734 -6.333182 -0.274453
v 0.354035 -6.333182 -0.257221
v 0.316870 6.333182 0.087078
v 0.316870 6.333182 -0.087078
v 0.354035 6.333182 -0.257221
v 0.180734 6.333182 -0.274453
v 0.015102 6.333182 -0.328270
v -0.135229 6.333182 -0.416193
v -0.205170 6.333182 -0.256699
v -0.307536 6.333182 -0.115804
v -0.437611 6.333182 -0.000000
v -0.307536 6.333182 0.115804
v -0.205170 6.333182 0.256699
v -0.135229 6.333182 0.416193
v 0.015102 6.333182 0.328270
v 0.180734 6.333182 0.274453
v 0.354035 6.333182 0.257221
v 0.503222 -6.285437 -1.251320
v 0.327780 -6.285230 -1.307880
v 0.381181 -6.154145 -1.469031
v 0.554187 -6.154900 -1.413579
v -1.034572 -6.285437 -0.865272
v -1.142578 -6.285230 -0.715894
v -1.279340 -6.154145 -0.816480
v -1.173140 -6.154900 -0.963883
v -1.142623 -6.285437 0.716553
v -1.033932 -6.285230 0.865433
v -1.171857 -6.154145 0.964418
v -1.279227 -6.154900 0.817867
v 0.328393 -6.285437 1.308126
v 0.503573 -6.285230 1.250761
v 0.555093 -6.154145 1.412524
v 0.382534 -6.154900 1.469352
v 1.345580 -6.285437 0.091913
v 1.345157 -6.285230 -0.092420
v 1.514923 -6.154145 -0.091431
v 1.515647 -6.154900 0.090243
v 0.328393 6.285437 -1.308126
v 0.503573 6.285230 -1.250761
v 0.555093 6.154145 -1.412524
v 0.382535 6.154900 -1.469352
v -1.142622 6.285437 -0.716553
v -1.033932 6.285230 -0.865433
v -1.171857 6.154145 -0.964419
v -1.279227 6.154900 -0.817867
v -1.034572 6.285437 0.865272
v -1.142578 6.285230 0.715894
v -1.279340 6.154145 0.816480
v -1.173141 6.154900 0.963883
v 0.503222 6.285437 1.251320
v 0.327779 6.285230 1.307880
v 0.381181 6.154145 1.469031
v 0.554187 6.154900 1.413579
v 1.345580 6.285437 -0.091913
v 1.345157 6.285230 0.092420
v 1.514923 6.154145 0.091431
v 1.515647 6.154900 -0.090243
v 0.115284 -6.333182 -0.083759
v 0.115284 -6.333182 0.083759
v -0.044035 -6.333182 0.135525
v -0.142499 -6.333182 -0.000000
v -0.044035 -6.333182 -0.135525
v 0.115284 6.333182 0.083759
v 0.115284 6.333182 -0.083759
v -0.044035 6.333182 -0.135525
v -0.142499 6.333182 -0.000000
v -0.044035 6.333182 0.135525
vt 0.550605 0.089784
vt 0.563077 0.093155
vt 0.580131 0.154846
vt 0.570999 0.163381
vt 0.562094 0.082087
vt 0.549644 0.078860
vt 0.575963 0.097642
vt 0.588576 0.143275
vt 0.575639 0.172803
vt 0.584857 0.164428
vt 0.541890 0.088433
vt 0.563627 0.166590
vt 0.574963 0.086459
vt 0.540948 0.077641
vt 0.565009 0.071484
vt 0.552519 0.068403
vt 0.609462 0.110072
vt 0.593358 0.153013
vt 0.592530 0.170955
vt 0.583193 0.179221
vt 0.613983 0.100986
vt 0.577919 0.075765
vt 0.543797 0.067349
vt 0.558723 0.060279
vt 0.571305 0.063233
vt 0.617662 0.114299
vt 0.601096 0.159622
vt 0.601784 0.173270
vt 0.592314 0.181498
vt 0.616749 0.090975
vt 0.623892 0.104560
vt 0.584319 0.067409
vt 0.611915 0.014812
vt 0.615931 0.025123
vt 0.624906 0.120486
vt 0.610452 0.161960
vt 0.617635 0.080501
vt 0.626554 0.094931
vt 0.630860 0.110511
vt 0.617340 0.039206
vt 0.624585 0.020597
vt 0.620470 0.010337
vt 0.630860 0.128347
vt 0.651268 0.161960
vt 0.656976 0.173288
vt 0.626383 0.082747
vt 0.635166 0.094931
vt 0.637828 0.104560
vt 0.636814 0.120486
vt 0.626077 0.034633
vt 0.660623 0.159622
vt 0.666183 0.170958
vt 0.635337 0.082747
vt 0.644970 0.090975
vt 0.647737 0.100986
vt 0.644058 0.114299
vt 0.634068 0.020572
vt 0.635642 0.034633
vt 0.668362 0.153013
vt 0.673831 0.164389
vt 0.644084 0.080501
vt 0.683801 0.075765
vt 0.686757 0.086459
vt 0.652258 0.110072
vt 0.642694 0.025054
vt 0.644380 0.039206
vt 0.673144 0.143275
vt 0.678559 0.154752
vt 0.677401 0.067409
vt 0.696597 0.082050
vt 0.693642 0.071463
vt 0.685757 0.097642
vt 0.687303 0.063192
vt 0.695641 0.093072
vt 0.586433 0.233746
vt 0.598878 0.230297
vt 0.578591 0.303882
vt 0.569388 0.295427
vt 0.599839 0.219453
vt 0.587402 0.222725
vt 0.607524 0.228894
vt 0.586058 0.307050
vt 0.564649 0.305064
vt 0.573903 0.313400
vt 0.573527 0.238317
vt 0.560915 0.283950
vt 0.608505 0.218195
vt 0.574527 0.227134
vt 0.584460 0.212137
vt 0.596942 0.209024
vt 0.556132 0.293688
vt 0.556988 0.311633
vt 0.566344 0.319889
vt 0.540028 0.250746
vt 0.605673 0.207934
vt 0.535508 0.241660
vt 0.571572 0.216440
vt 0.578132 0.203866
vt 0.590705 0.200865
vt 0.531828 0.254974
vt 0.548394 0.300297
vt 0.557259 0.322190
vt 0.547767 0.313963
vt 0.525598 0.245235
vt 0.532741 0.231650
vt 0.565171 0.208084
vt 0.533485 0.165729
vt 0.537396 0.155369
vt 0.524584 0.261161
vt 0.539038 0.302635
vt 0.518630 0.251186
vt 0.522937 0.235605
vt 0.531855 0.221176
vt 0.532151 0.179881
vt 0.528935 0.150968
vt 0.524873 0.161247
vt 0.518630 0.269022
vt 0.492613 0.313945
vt 0.498223 0.302635
vt 0.512677 0.261161
vt 0.514324 0.235605
vt 0.511663 0.245235
vt 0.523107 0.223422
vt 0.523413 0.175308
vt 0.488867 0.300297
vt 0.483348 0.311630
vt 0.505433 0.254974
vt 0.514154 0.223422
vt 0.501753 0.241660
vt 0.504520 0.231650
vt 0.513848 0.175308
vt 0.515403 0.161272
vt 0.475661 0.305102
vt 0.481129 0.293688
vt 0.497233 0.250746
vt 0.505406 0.221176
vt 0.462734 0.227134
vt 0.465689 0.216440
vt 0.505110 0.179881
vt 0.506760 0.165798
vt 0.470923 0.295521
vt 0.476346 0.283950
vt 0.463734 0.238317
vt 0.472090 0.208084
vt 0.455813 0.212159
vt 0.452912 0.222762
vt 0.462096 0.203908
vt 0.453906 0.233830
vt 0.678790 0.611879
vt 0.669587 0.603424
vt 0.686632 0.541743
vt 0.699076 0.538294
vt 0.664847 0.613060
vt 0.674102 0.621397
vt 0.700038 0.527450
vt 0.687601 0.530722
vt 0.686256 0.615047
vt 0.707723 0.536891
vt 0.657186 0.619630
vt 0.666543 0.627886
vt 0.708703 0.526191
vt 0.684658 0.520134
vt 0.697140 0.517020
vt 0.657457 0.630187
vt 0.647966 0.621959
vt 0.705871 0.515930
vt 0.678330 0.511863
vt 0.690904 0.508861
vt 0.633684 0.473725
vt 0.637594 0.463366
vt 0.629134 0.458965
vt 0.625072 0.469243
vt 0.599695 0.652839
vt 0.590563 0.661373
vt 0.570169 0.587777
vt 0.582641 0.591148
vt 0.595202 0.670795
vt 0.604420 0.662420
vt 0.583191 0.664582
vt 0.561453 0.586426
vt 0.581658 0.580080
vt 0.569207 0.576853
vt 0.612094 0.668948
vt 0.602757 0.677214
vt 0.560512 0.575633
vt 0.584572 0.569476
vt 0.572082 0.566396
vt 0.621347 0.671263
vt 0.611877 0.679491
vt 0.563360 0.565342
vt 0.578287 0.558272
vt 0.590868 0.561225
vt 0.631478 0.512805
vt 0.635494 0.523115
vt 0.644148 0.518590
vt 0.640034 0.508330
vt 0.313754 0.012945
vt 0.324505 0.013027
vt 0.324384 0.735380
vt 0.313535 0.735296
vt 0.312091 0.002206
vt 0.322987 0.002249
vt 0.334485 0.013118
vt 0.334401 0.735471
vt 0.311924 0.746163
vt 0.322904 0.746204
vt 0.233919 0.013202
vt 0.233701 0.735554
vt 0.333131 0.002294
vt 0.333081 0.746249
vt 0.224130 0.013118
vt 0.224020 0.735471
vt 0.339528 0.012403
vt 0.349545 0.012494
vt 0.349424 0.734847
vt 0.339444 0.734756
vt 0.351025 0.001670
vt 0.340848 0.001625
vt 0.360394 0.012578
vt 0.360175 0.734930
vt 0.340798 0.745580
vt 0.350942 0.745625
vt 0.362005 0.001711
vt 0.440228 0.012321
vt 0.440010 0.734672
vt 0.361838 0.745668
vt 0.449909 0.012403
vt 0.449799 0.734756
vt 0.086122 0.011697
vt 0.096709 0.011780
vt 0.096590 0.734132
vt 0.085914 0.734049
vt 0.084986 0.000959
vt 0.095718 0.001001
vt 0.107195 0.011871
vt 0.107098 0.734223
vt 0.084830 0.744915
vt 0.095638 0.744956
vt 0.010080 0.011954
vt 0.009872 0.734306
vt 0.013393 0.001088
vt 0.013224 0.745044
vt 0.001098 0.011871
vt 0.000998 0.734223
vt 0.004312 0.001047
vt 0.004237 0.745002
vt 0.112606 0.014360
vt 0.123114 0.014451
vt 0.122994 0.736803
vt 0.112509 0.736712
vt 0.133790 0.014534
vt 0.133582 0.736886
vt 0.134874 0.003668
vt 0.124066 0.003627
vt 0.209832 0.014277
vt 0.209623 0.736629
vt 0.134717 0.747624
vt 0.123986 0.747582
vt 0.206480 0.003539
vt 0.218706 0.014360
vt 0.218605 0.736712
vt 0.206310 0.747495
vt 0.215466 0.003581
vt 0.215391 0.747536
vt 0.784434 0.015603
vt 0.792127 0.007674
vt 0.858001 0.048268
vt 0.854454 0.058620
vt 0.776053 0.008959
vt 0.783633 0.000976
vt 0.803246 0.001508
vt 0.858431 0.035589
vt 0.863987 0.063199
vt 0.867682 0.052872
vt 0.531217 0.581201
vt 0.461196 0.538184
vt 0.452912 0.531585
vt 0.540832 0.585847
vt 0.670221 0.421653
vt 0.676037 0.431192
vt 0.666818 0.436828
vt 0.660872 0.427412
vt 0.999002 0.953972
vt 0.989756 0.959564
vt 0.654417 0.417159
vt 0.663893 0.411300
vt 0.514684 0.616431
vt 0.508630 0.627579
vt 0.467864 0.561811
vt 0.480567 0.561269
vt 0.500827 0.635252
vt 0.457437 0.565462
vt 0.507306 0.643610
vt 0.515229 0.636026
vt 0.452912 0.555771
vt 0.463262 0.552021
vt 0.713669 0.554551
vt 0.719600 0.545084
vt 0.728764 0.550808
vt 0.723001 0.560337
vt 0.716717 0.570696
vt 0.707239 0.564842
vn -0.034914 -0.992685 -0.115577
vn 0.004578 -0.998211 -0.059617
vn 0.000000 -1.000000 -0.000000
vn 0.000000 -1.000000 0.000000
vn 0.030726 -0.998237 -0.050791
vn 0.000000 -1.000000 0.000000
vn 0.096310 -0.992691 -0.072727
vn 0.000000 -1.000000 -0.000001
vn -0.285765 -0.003568 -0.958293
vn -0.278548 -0.265823 -0.922902
vn -0.316032 -0.266013 -0.910692
vn -0.331977 -0.003579 -0.943281
vn -0.180581 -0.731827 -0.657130
vn -0.158256 -0.831695 -0.532202
vn -0.183651 -0.831737 -0.523915
vn -0.239333 -0.732978 -0.636760
vn -0.039408 -0.992691 -0.114069
vn 0.794527 -0.003579 -0.607219
vn 0.500699 -0.004775 -0.865608
vn 0.499053 0.004823 -0.866558
vn 0.794459 0.003568 -0.607307
vn 0.105608 -0.004823 -0.994396
vn 0.103718 0.004775 -0.994595
vn -0.285871 0.003579 -0.958261
vn 0.441520 -0.831738 -0.336560
vn 0.457249 -0.831696 -0.314969
vn 0.099132 -0.992685 -0.068921
vn 0.531635 -0.732979 -0.424389
vn 0.569162 -0.731829 -0.374807
vn 0.768461 -0.266012 -0.581985
vn 0.823085 -0.003568 -0.567907
vn 0.791656 -0.265823 -0.550108
vn -0.120711 -0.992685 -0.002510
vn -0.055284 -0.998211 -0.022776
vn 0.000000 -1.000000 0.000000
vn 0.000000 -1.000000 0.000000
vn -0.038811 -0.998237 -0.044918
vn 0.000000 -1.000000 0.000000
vn -0.999697 -0.003568 -0.024350
vn -0.963809 -0.265822 -0.020277
vn -0.963780 -0.266012 0.019145
vn -0.999700 -0.003579 0.024239
vn -0.680768 -0.731830 -0.031320
vn -0.555056 -0.831696 -0.013948
vn -0.555022 -0.831738 0.012764
vn -0.679551 -0.732979 0.030851
vn -0.120666 -0.992691 0.002229
vn -0.668518 -0.004775 -0.743681
vn -0.669930 0.004823 -0.742409
vn -0.332082 0.003568 -0.943244
vn -0.913093 -0.004823 -0.407724
vn -0.913866 0.004775 -0.405989
vn -0.999700 0.003579 -0.024240
vn -0.039689 -0.992685 0.114027
vn -0.038746 -0.998211 0.045540
vn 0.000000 -1.000000 0.000001
vn 0.000000 -1.000000 0.000000
vn -0.054712 -0.998237 0.023031
vn 0.000000 -1.000000 0.000000
vn -0.332082 -0.003568 0.943244
vn -0.317118 -0.265823 0.910371
vn -0.279616 -0.266012 0.922525
vn -0.285871 -0.003579 0.958261
vn -0.240156 -0.731830 0.637770
vn -0.184788 -0.831696 0.523579
vn -0.159372 -0.831738 0.531801
vn -0.180652 -0.732979 0.655825
vn -0.035168 -0.992691 0.115448
vn -0.913866 -0.004775 0.405989
vn -0.913092 0.004823 0.407724
vn -0.999697 0.003568 0.024350
vn -0.669929 -0.004823 0.742409
vn -0.668518 0.004775 0.743681
vn -0.331977 0.003579 0.943281
vn 0.096181 -0.992685 0.072982
vn 0.031338 -0.998211 0.050922
vn 0.000000 -1.000000 0.000000
vn 0.000000 -1.000000 0.000000
vn 0.004997 -0.998237 0.059151
vn 0.000000 -1.000000 0.000000
vn 0.794459 -0.003568 0.607307
vn 0.767819 -0.265823 0.582917
vn 0.790967 -0.266012 0.551006
vn 0.823022 -0.003579 0.567999
vn 0.532343 -0.731829 0.425485
vn 0.440851 -0.831696 0.337539
vn 0.456525 -0.831737 0.315908
vn 0.567902 -0.732979 0.374473
vn 0.098931 -0.992691 0.069122
vn 0.103717 -0.004775 0.994595
vn 0.105607 0.004823 0.994396
vn -0.285765 0.003568 0.958293
vn 0.499053 -0.004823 0.866558
vn 0.500699 0.004775 0.865609
vn 0.794526 0.003579 0.607219
vn 0.058114 -0.998211 -0.014070
vn 0.000000 -1.000000 -0.000001
vn 0.057801 -0.998237 0.013526
vn 0.000000 -1.000000 -0.000000
vn 0.977967 -0.004775 0.208705
vn 0.978361 0.004823 0.206847
vn 0.823085 0.003568 0.567907
vn 0.978362 -0.004823 -0.206847
vn 0.977967 0.004775 -0.208705
vn 0.823022 0.003579 -0.567998
vn 0.096181 0.992685 -0.072981
vn 0.031338 0.998211 -0.050921
vn 0.000000 1.000000 0.000001
vn 0.000000 1.000000 -0.000001
vn 0.004997 0.998237 -0.059151
vn 0.000000 1.000000 0.000000
vn -0.035168 0.992691 -0.115448
vn 0.000000 1.000000 -0.000001
vn 0.767819 0.265823 -0.582917
vn 0.790967 0.266013 -0.551006
vn 0.532343 0.731829 -0.425485
vn 0.440851 0.831696 -0.337539
vn 0.456525 0.831738 -0.315908
vn 0.567902 0.732979 -0.374473
vn 0.098931 0.992691 -0.069122
vn -0.159372 0.831738 -0.531802
vn -0.184787 0.831696 -0.523580
vn -0.039689 0.992685 -0.114027
vn -0.180652 0.732979 -0.655825
vn -0.240156 0.731829 -0.637771
vn -0.279615 0.266012 -0.922525
vn -0.317117 0.265823 -0.910371
vn -0.038746 0.998211 -0.045540
vn 0.000000 1.000000 -0.000001
vn -0.054712 0.998237 -0.023031
vn 0.000000 1.000000 0.000000
vn -0.120665 0.992691 -0.002229
vn 0.000000 1.000000 0.000000
vn -0.555022 0.831738 -0.012764
vn -0.555056 0.831696 0.013948
vn -0.120710 0.992685 0.002510
vn -0.679551 0.732980 -0.030851
vn -0.680767 0.731830 0.031320
vn -0.963780 0.266012 -0.019145
vn -0.963809 0.265822 0.020277
vn -0.055284 0.998211 0.022775
vn 0.000000 1.000000 -0.000001
vn -0.038811 0.998237 0.044917
vn 0.000000 1.000000 0.000000
vn -0.039408 0.992691 0.114072
vn 0.000000 1.000000 0.000001
vn -0.183651 0.831738 0.523913
vn -0.158256 0.831695 0.532201
vn -0.034914 0.992685 0.115579
vn -0.239334 0.732979 0.636759
vn -0.180581 0.731829 0.657128
vn -0.316032 0.266012 0.910693
vn -0.278548 0.265823 0.922903
vn 0.004578 0.998211 0.059616
vn 0.000000 1.000000 -0.000001
vn 0.030726 0.998237 0.050791
vn 0.000000 1.000000 -0.000001
vn 0.096310 0.992691 0.072728
vn 0.000000 1.000000 0.000000
vn 0.441520 0.831737 0.336561
vn 0.457249 0.831696 0.314970
vn 0.099132 0.992685 0.068921
vn 0.531635 0.732979 0.424390
vn 0.569162 0.731829 0.374808
vn 0.768460 0.266013 0.581985
vn 0.791656 0.265823 0.550108
vn 0.058114 0.998211 0.014068
vn 0.000000 1.000000 0.000000
vn 0.057801 0.998237 -0.013528
vn 0.000000 1.000000 -0.000002
vn 0.218653 -0.900087 -0.376874
vn 0.039945 -0.898837 -0.436458
vn 0.076787 -0.786005 -0.613433
vn 0.085407 -0.317588 -0.944375
vn 0.476826 -0.319101 -0.819031
vn 0.289922 -0.787899 -0.543287
vn -0.290861 -0.900087 -0.324413
vn -0.402752 -0.898837 -0.172864
vn -0.559680 -0.786005 -0.262591
vn -0.871761 -0.317588 -0.373055
vn -0.631597 -0.319101 -0.706583
vn -0.427105 -0.787899 -0.443617
vn -0.398416 -0.900087 0.176376
vn -0.288860 -0.898838 0.329622
vn -0.422689 -0.786005 0.451144
vn -0.624185 -0.317588 0.713815
vn -0.867175 -0.319101 0.382339
vn -0.553888 -0.787899 0.269116
vn 0.044627 -0.900087 0.433420
vn 0.224227 -0.898838 0.376581
vn 0.298444 -0.786005 0.541412
vn 0.485994 -0.317588 0.814216
vn 0.095654 -0.319101 0.942881
vn 0.084784 -0.787898 0.609941
vn 0.425996 -0.900087 0.091492
vn 0.427440 -0.898837 -0.096883
vn 0.607138 -0.786005 -0.116532
vn 0.924546 -0.317589 -0.210602
vn 0.926292 -0.319101 0.200394
vn 0.606287 -0.787899 0.107849
vn 0.044627 0.900087 -0.433419
vn 0.224227 0.898838 -0.376581
vn 0.298445 0.786005 -0.541412
vn 0.485994 0.317588 -0.814216
vn 0.095654 0.319101 -0.942881
vn 0.084784 0.787899 -0.609941
vn -0.398415 0.900087 -0.176375
vn -0.288860 0.898838 -0.329622
vn -0.422689 0.786005 -0.451144
vn -0.624185 0.317588 -0.713815
vn -0.867175 0.319101 -0.382338
vn -0.553888 0.787899 -0.269116
vn -0.290861 0.900087 0.324412
vn -0.402753 0.898838 0.172863
vn -0.559680 0.786006 0.262589
vn -0.871762 0.317588 0.373054
vn -0.631597 0.319101 0.706583
vn -0.427106 0.787899 0.443617
vn 0.218653 0.900087 0.376875
vn 0.039946 0.898837 0.436459
vn 0.076787 0.786004 0.613434
vn 0.085407 0.317589 0.944374
vn 0.476826 0.319101 0.819031
vn 0.289922 0.787898 0.543288
vn 0.425996 0.900087 -0.091492
vn 0.427440 0.898837 0.096882
vn 0.607138 0.786005 0.116532
vn 0.924546 0.317588 0.210602
vn 0.926292 0.319101 -0.200394
vn 0.606287 0.787899 -0.107849
vn 0.000000 -1.000000 -0.000001
vn 0.000000 -1.000000 -0.000001
vn 0.000000 -1.000000 -0.000001
vn 0.000000 -1.000000 -0.000001
vn 0.000000 -1.000000 -0.000001
vn 0.000000 1.000000 0.000000
vn 0.000000 1.000000 0.000001
vn 0.000000 1.000000 0.000001
vn 0.000000 1.000000 0.000002
vn 0.000000 1.000000 0.000001
s 1
usemtl initialShadingGroup
f 3/7/1 2/13/2 133/21/3 132/17/4
f 2/13/2 1/22/5 134/30/6 133/21/3
f 1/22/5 12/32/7 135/37/8 134/30/6
s 2
f 6/11/9 5/1/10 22/4/11 21/12/12
s 1
f 5/1/13 4/2/14 23/3/15 22/4/16
f 4/2/14 3/7/1 24/8/17 23/3/15
s 2
f 9/229/18 8/230/19 67/231/20 66/232/21
f 8/230/19 7/235/22 68/236/23 67/231/20
f 7/211/22 6/207/9 69/208/24 68/212/23
s 1
f 12/32/7 11/25/25 52/34/26 51/40/27
f 11/25/25 10/24/28 53/33/29 52/34/26
s 2
f 10/233/30 9/229/18 54/239/31 53/241/32
s 1
f 15/36/33 14/27/34 130/35/35 129/43/36
f 14/27/34 13/18/37 131/26/38 130/35/35
f 13/18/37 24/8/17 132/17/4 131/26/38
s 2
f 18/265/39 17/266/40 34/267/41 33/268/42
s 1
f 17/266/43 16/271/44 35/272/45 34/267/46
f 16/28/44 15/36/33 36/44/47 35/45/45
s 2
f 21/197/12 20/198/48 79/199/49 78/200/50
f 20/198/48 19/203/51 80/204/52 79/199/49
f 19/269/51 18/265/39 81/276/53 80/277/52
s 1
f 27/67/54 26/59/55 127/56/56 126/64/57
f 26/59/55 25/51/58 128/49/59 127/56/56
f 25/51/58 36/44/47 129/43/36 128/49/59
s 2
f 30/157/60 29/149/61 46/152/62 45/158/63
s 1
f 29/149/64 28/150/65 47/151/66 46/152/67
f 28/68/65 27/67/54 48/72/68 47/74/66
s 2
f 33/268/42 32/273/69 91/278/70 90/275/71
f 32/213/69 31/214/72 92/215/73 91/216/70
f 31/214/72 30/219/60 93/220/74 92/215/73
s 1
f 39/69/75 38/62/76 124/54/77 123/61/78
f 38/62/76 37/63/79 125/55/80 124/54/77
f 37/63/79 48/72/68 126/64/57 125/55/80
s 2
f 42/251/81 41/253/82 58/259/83 57/255/84
s 1
f 41/168/85 40/167/86 59/169/87 58/170/88
f 40/73/86 39/69/75 60/66/89 59/65/87
s 2
f 45/224/63 44/227/90 103/228/91 102/225/92
f 44/247/90 43/248/93 104/249/94 103/250/91
f 43/248/93 42/251/81 105/252/95 104/249/94
s 1
f 51/40/27 50/50/96 121/46/97 135/37/8
f 50/50/96 49/58/98 122/53/99 121/46/97
f 49/58/98 60/66/89 123/61/78 122/53/99
s 2
f 57/255/84 56/260/100 115/261/101 114/256/102
f 56/281/100 55/280/103 116/283/104 115/284/101
f 55/243/103 54/239/31 117/240/105 116/244/104
s 14
f 63/106/106 62/97/107 139/105/108 138/113/109
f 62/97/107 61/88/110 140/96/111 139/105/108
f 61/88/110 72/85/112 141/94/113 140/96/111
s 2
f 66/232/21 65/237/114 118/242/115 117/240/105
s 14
f 65/99/116 64/98/117 119/107/118 118/108/119
f 64/98/117 63/106/106 120/114/120 119/107/118
f 72/85/112 71/75/121 76/78/122 75/86/123
f 71/75/121 70/76/124 77/77/125 76/78/122
s 2
f 70/76/126 69/81/24 78/82/50 77/77/127
s 14
f 75/86/123 74/91/128 142/100/129 141/94/113
f 74/91/128 73/101/130 143/109/131 142/100/129
f 73/101/130 84/110/132 144/117/133 143/109/131
f 84/110/132 83/103/134 88/118/135 87/119/136
f 83/287/134 82/288/137 89/289/138 88/290/135
s 2
f 82/288/139 81/291/53 90/292/71 89/289/140
s 14
f 87/119/136 86/125/141 145/120/142 144/117/133
f 86/125/141 85/134/143 146/127/144 145/120/142
f 85/134/143 96/142/145 147/135/146 146/127/144
f 96/142/145 95/141/147 100/148/148 99/143/149
f 95/173/147 94/174/150 101/175/151 100/176/148
s 2
f 94/174/152 93/179/74 102/180/92 101/175/153
s 14
f 99/143/149 98/137/154 148/129/155 147/135/146
f 98/137/154 97/138/156 149/130/157 148/129/155
f 97/138/156 108/144/158 150/136/159 149/130/157
f 108/144/158 107/147/160 112/140/161 111/139/162
f 107/192/160 106/191/163 113/193/164 112/194/161
s 2
f 106/257/165 105/252/95 114/256/102 113/262/166
s 14
f 111/139/162 110/131/167 136/128/168 150/136/159
f 110/131/167 109/124/169 137/123/170 136/128/168
f 109/124/169 120/114/120 138/113/109 137/123/170
s 2
f 6/207/9 21/197/12 78/200/50 69/208/24
f 18/265/39 33/268/42 90/275/71 81/276/53
f 30/219/60 45/224/63 102/225/92 93/220/74
f 42/251/81 57/255/84 114/256/102 105/252/95
f 54/239/31 9/229/18 66/232/21 117/240/105
s 1
f 24/8/17 3/7/1 132/17/4
f 36/44/47 15/36/33 129/43/36
f 48/72/68 27/67/54 126/64/57
f 60/66/89 39/69/75 123/61/78
f 12/32/7 51/40/27 135/37/8
s 14
f 72/85/112 75/86/123 141/94/113
f 84/110/132 87/119/136 144/117/133
f 96/142/145 99/143/149 147/135/146
f 108/144/158 111/139/162 150/136/159
f 120/114/120 63/106/106 138/113/109
s 1
f 11/25/25 12/32/7 1/22/5 151/15/171
f 151/15/171 1/22/5 2/13/2 152/5/172
f 2/13/2 3/7/1 4/2/14 152/5/172
f 152/5/172 4/2/14 5/1/13 153/6/173
s 2
f 5/1/10 6/11/9 7/14/22 153/6/174
f 153/6/174 7/14/22 8/23/19 154/16/175
f 8/230/19 9/229/18 10/233/30 154/234/175
s 1
f 154/16/176 10/24/28 11/25/25 151/15/171
f 151/15/171 152/5/172 153/6/173 154/16/176
f 23/3/15 24/8/17 13/18/37 155/10/177
f 155/10/177 13/18/37 14/27/34 156/19/178
f 14/27/34 15/36/33 16/28/44 156/19/178
f 156/19/178 16/28/44 17/29/43 157/20/179
s 2
f 17/266/40 18/265/39 19/269/51 157/270/180
f 157/209/180 19/203/51 20/198/48 158/202/181
f 20/198/48 21/197/12 22/201/11 158/202/181
s 1
f 158/9/182 22/4/16 23/3/15 155/10/177
f 155/10/177 156/19/178 157/20/179 158/9/182
f 35/45/45 36/44/47 25/51/58 159/52/183
f 159/52/183 25/51/58 26/59/55 160/60/184
f 26/59/55 27/67/54 28/68/65 160/60/184
f 160/153/184 28/150/65 29/149/64 161/154/185
s 2
f 29/223/61 30/219/60 31/214/72 161/217/186
f 161/217/186 31/214/72 32/213/69 162/218/187
f 32/273/69 33/268/42 34/267/41 162/274/187
s 1
f 162/160/188 34/164/46 35/165/45 159/159/183
f 159/159/183 160/153/184 161/154/185 162/160/188
f 47/74/66 48/72/68 37/63/79 163/70/189
f 163/70/189 37/63/79 38/62/76 164/71/190
f 38/62/76 39/69/75 40/73/86 164/71/190
f 164/162/190 40/167/86 41/168/85 165/163/191
s 2
f 41/253/82 42/251/81 43/248/93 165/254/192
f 165/163/192 43/166/93 44/161/90 166/155/193
f 44/161/90 45/158/63 46/152/62 166/155/193
s 1
f 166/155/194 46/152/67 47/151/66 163/156/189
f 163/156/189 164/162/190 165/163/191 166/155/194
f 59/65/87 60/66/89 49/58/98 167/57/195
f 167/57/195 49/58/98 50/50/96 168/41/196
f 50/50/96 51/40/27 52/34/26 168/41/196
f 168/41/196 52/34/26 53/33/29 169/42/197
s 2
f 53/241/32 54/239/31 55/243/103 169/245/198
f 169/279/198 55/280/103 56/281/100 170/282/199
f 56/260/100 57/255/84 58/259/83 170/263/199
s 1
f 170/171/200 58/170/88 59/169/87 167/172/195
f 167/285/195 168/286/196 169/279/197 170/282/200
s 14
f 71/75/121 72/85/112 61/88/110 171/80/201
f 171/80/201 61/88/110 62/97/107 172/89/202
f 62/97/107 63/106/106 64/98/117 172/89/202
f 172/89/202 64/98/117 65/99/116 173/90/203
s 2
f 65/237/114 66/232/21 67/231/20 173/238/204
f 173/90/204 67/95/20 68/87/23 174/79/205
f 68/87/23 69/81/24 70/76/126 174/79/205
s 14
f 174/79/206 70/76/124 71/75/121 171/80/201
f 171/80/201 172/89/202 173/90/203 174/79/206
f 83/103/134 84/110/132 73/101/130 175/92/207
f 175/92/207 73/101/130 74/91/128 176/83/208
f 74/91/128 75/86/123 76/78/122 176/83/208
f 176/83/208 76/78/122 77/77/125 177/84/209
s 2
f 77/205/127 78/200/50 79/199/49 177/206/210
f 177/206/210 79/199/49 80/204/52 178/210/211
f 80/293/52 81/291/53 82/288/139 178/294/211
s 14
f 178/93/212 82/102/137 83/103/134 175/92/207
f 175/92/207 176/83/208 177/84/209 178/93/212
f 95/141/147 96/142/145 85/134/143 179/133/213
f 179/133/213 85/134/143 86/125/141 180/126/214
f 86/125/141 87/119/136 88/118/135 180/126/214
f 180/183/214 88/188/135 89/189/138 181/184/215
s 2
f 89/289/140 90/292/71 91/295/70 181/296/216
f 181/221/216 91/216/70 92/215/73 182/222/217
f 92/215/73 93/220/74 94/226/152 182/222/217
s 14
f 182/177/218 94/174/150 95/173/147 179/178/213
f 179/178/213 180/183/214 181/184/215 182/177/218
f 107/147/160 108/144/158 97/138/156 183/145/219
f 183/145/219 97/138/156 98/137/154 184/146/220
f 98/137/154 99/143/149 100/148/148 184/146/220
f 184/181/220 100/176/148 101/175/151 185/182/221
s 2
f 101/175/153 102/180/92 103/185/91 185/182/222
f 185/182/222 103/185/91 104/190/94 186/187/223
f 104/249/94 105/252/95 106/257/165 186/258/223
s 14
f 186/187/224 106/191/163 107/192/160 183/186/219
f 183/186/219 184/181/220 185/182/221 186/187/224
f 119/107/118 120/114/120 109/124/169 187/116/225
f 187/116/225 109/124/169 110/131/167 188/132/226
f 110/131/167 111/139/162 112/140/161 188/132/226
f 188/195/226 112/194/161 113/193/164 189/196/227
s 2
f 113/262/166 114/256/102 115/261/101 189/264/228
f 189/297/228 115/298/101 116/299/104 190/300/229
f 116/244/104 117/240/105 118/242/115 190/246/229
s 14
f 190/115/230 118/108/119 119/107/118 187/116/225
f 187/301/225 188/302/226 189/297/227 190/300/230
s 1
f 134/30/6 135/37/8 121/46/97 191/38/231
f 191/38/231 121/46/97 122/53/99 192/47/232
f 122/53/99 123/61/78 124/54/77 192/47/232
f 192/47/232 124/54/77 125/55/80 193/48/233
f 125/55/80 126/64/57 127/56/56 193/48/233
f 193/48/233 127/56/56 128/49/59 194/39/234
f 128/49/59 129/43/36 130/35/35 194/39/234
f 194/39/234 130/35/35 131/26/38 195/31/235
f 131/26/38 132/17/4 133/21/3 195/31/235
f 195/31/235 133/21/3 134/30/6 191/38/231
f 191/38/231 192/47/232 193/48/233 194/39/234 195/31/235
s 14
f 149/130/157 150/136/159 136/128/168 196/121/236
f 196/121/236 136/128/168 137/123/170 197/112/237
f 137/123/170 138/113/109 139/105/108 197/112/237
f 197/112/237 139/105/108 140/96/111 198/104/238
f 140/96/111 141/94/113 142/100/129 198/104/238
f 198/104/238 142/100/129 143/109/131 199/111/239
f 143/109/131 144/117/133 145/120/142 199/111/239
f 199/111/239 145/120/142 146/127/144 200/122/240
f 146/127/144 147/135/146 148/129/155 200/122/240
f 200/122/240 148/129/155 149/130/157 196/121/236
f 196/121/236 197/112/237 198/104/238 199/111/239 200/122/240
