# This file uses centimeters as units for non-parametric coordinates.

mtllib LavaFlow_Volcano_01.mtl
v 1862.021064 -7299.855087 -9356.288371
v 1492.367716 -7283.385543 -9460.470619
v 1109.873643 -7214.772286 -9252.865626
v 933.321360 -7057.127566 -8861.789289
v 1079.466485 -6903.754422 -8503.894008
v 1462.863055 -6985.320090 -8376.233919
v 1832.761495 -7174.815388 -8563.791900
v 2000.397172 -7276.768725 -8975.875972
v 2531.374609 -5675.492466 -10824.769392
v 2415.498570 -5609.401246 -10967.925378
v 2450.792795 -5520.130638 -11146.640335
v 2607.708814 -5466.348971 -11229.747380
v 2797.082804 -5455.549821 -11178.062865
v 2909.120763 -5488.715461 -11025.851527
v 2882.169820 -5551.161337 -10870.732144
v 2726.207006 -5630.337215 -10789.257140
v 2276.069942 -5098.013794 -11018.008619
v 2031.814890 -4967.858207 -10717.507017
v 1771.475568 -5047.044006 -10295.821828
v 1544.221670 -5433.751305 -9901.787086
v 1555.108241 -5900.130751 -10026.501780
v 1702.129970 -5482.587826 -10316.993526
v 1931.394706 -5294.227392 -10670.906389
v 2170.293590 -5329.350617 -10946.815086
v 1766.195566 -6319.371491 -9970.387904
v 1885.545447 -5918.055970 -10244.482840
v 2080.943455 -5637.555383 -10574.116102
v 2285.676408 -5567.871352 -10841.706143
v 2030.929518 -6472.502998 -9829.535545
v 2172.359976 -6085.118825 -10105.854215
v 2335.552037 -5782.538424 -10465.425533
v 2481.448114 -5674.036655 -10740.316200
v 2259.259772 -6286.623573 -9619.699351
v 2405.952086 -5868.831925 -9949.421667
v 2542.277940 -5613.625897 -10310.451186
v 2652.403286 -5566.948596 -10597.036767
v 2241.001657 -5875.612943 -9457.669277
v 2442.385447 -5452.897749 -9841.426314
v 2632.154215 -5262.960576 -10256.753400
v 2759.393823 -5325.040169 -10568.630156
v 2063.510413 -5384.300273 -9512.322231
v 2302.304604 -5005.732527 -9922.420427
v 2540.896277 -4944.541225 -10391.084974
v 2714.500823 -5093.404403 -10726.549076
v 1762.909883 -5185.723932 -9694.267415
v 2021.122702 -4848.012016 -10120.533711
v 2287.989436 -4832.786725 -10590.834889
v 2511.155863 -5004.466675 -10928.262882
v 1801.454818 -8100.882620 -9089.560341
v 1159.723347 -8060.282453 -9274.189197
v 496.117421 -8007.135804 -8892.186824
v 217.633924 -7992.016978 -8215.067000
v 469.142041 -7990.752748 -7593.551497
v 1086.069726 -7992.031423 -7346.750087
v 1724.068318 -8006.892613 -7663.945596
v 2026.044477 -8058.316077 -8402.001032
v 1763.771543 -6239.610467 -8951.845291
v 1419.895267 -6073.122860 -9102.104797
v 1243.140656 -6321.066700 -9380.535749
v 1343.439323 -6620.006910 -9645.085455
v 1636.827972 -6829.786657 -9716.277670
v 1948.870195 -6903.991579 -9592.882461
v 2132.442830 -6818.278034 -9299.107053
v 2036.530682 -6591.370847 -9013.001842
v 1237.120531 -7527.883424 -7875.380739
v 1698.483393 -7599.304170 -8128.074079
v 1910.274896 -7694.387442 -8654.978175
v 1755.142876 -7737.073203 -9131.713692
v 1305.736415 -7706.938861 -9251.958033
v 830.209038 -7624.607048 -8978.746539
v 613.702037 -7550.106913 -8483.187359
v 785.265709 -7511.725091 -8029.304010
v 2331.574651 -6059.022375 -9780.848812
v 2164.419956 -6416.196963 -9727.922810
v 2476.611946 -5716.984853 -10132.056432
v 2700.550616 -5266.060712 -10421.527394
v 2606.309426 -5447.853453 -10262.772639
v 2448.932599 -5676.473872 -9879.401234
v 2341.911042 -5627.247633 -9650.321875
v 2277.683401 -6102.567032 -9520.096166
v 2542.616186 -5328.354164 -10053.478204
v 2631.112698 -4988.945691 -10572.244130
v 2609.993544 -5087.281876 -10306.167049
v 2393.357904 -5212.614045 -9860.150601
v 2186.375451 -5138.022393 -9722.136871
v 2170.524912 -5617.346314 -9460.974775
v 2425.885954 -4945.687882 -10159.940069
v 2398.619238 -4887.888003 -10776.460757
v 2425.931851 -4858.462482 -10491.578752
v 2169.680151 -4882.363078 -10015.081963
v 1896.837361 -4954.486657 -9914.510984
v 1917.215070 -5233.007976 -9594.021322
v 2156.832014 -4813.470105 -10359.083824
v 2149.958740 -4871.255127 -10672.039891
v 1882.270518 -4908.186303 -10221.174233
v 1631.865855 -5264.702606 -9801.255895
v 1798.988152 -7520.113001 -9230.101359
v 1552.336305 -7730.505938 -9242.865108
v 1399.126957 -7501.441935 -9336.293697
v 1052.209645 -7668.579896 -9156.161688
v 977.195886 -7433.077903 -9093.873536
v 678.188252 -7584.197047 -8742.982795
v 779.729941 -7322.244605 -8654.647146
v 654.306152 -7525.093122 -8233.675800
v 930.745104 -7231.493067 -8255.048306
v 991.846135 -7512.572239 -7904.927499
v 1339.273506 -7274.815331 -8122.444238
v 1484.162126 -7557.906958 -7955.499340
v 1749.162427 -7397.725917 -8347.051931
v 1845.596893 -7648.737854 -8375.895990
v 1937.506808 -7491.279459 -8810.390730
v 1877.289646 -7724.432735 -8921.334501
v 1919.121416 -5786.309079 -9246.209302
v 1598.274194 -5594.553839 -9413.054841
v 1400.245455 -5852.381489 -9652.397768
v 1456.173400 -6247.281328 -9845.269948
v 1703.644498 -6571.623887 -9842.885195
v 1985.607506 -6688.985868 -9709.229377
v 2194.787420 -6550.702568 -9459.334822
v 2139.465793 -6222.202990 -9240.972911
v 1156.269664 -7764.156132 -7614.515550
v 1425.975818 -7995.867448 -7438.001504
v 1698.581550 -7802.655344 -7898.627242
v 1932.786166 -8029.739075 -8006.959496
v 1951.136344 -7880.580456 -8522.704883
v 1977.758347 -8086.533778 -8784.028410
v 1764.898595 -7925.989047 -9095.174831
v 1510.660934 -8087.854325 -9255.115727
v 1228.653105 -7889.375574 -9243.983353
v 802.988916 -8031.001659 -9140.275255
v 667.175085 -7815.924453 -8921.097228
v 294.768766 -7995.809484 -8568.736576
v 422.069401 -7772.443291 -8341.647207
v 283.403994 -7990.752748 -7876.320586
v 629.720338 -7759.382449 -7809.854272
v 751.911257 -7990.752748 -7407.814210
v 1660.331120 -5181.958579 -10104.528958
v 1707.089816 -5248.743729 -10323.294733
v 1627.169404 -5653.736640 -10172.618955
v 1520.116035 -5656.677222 -9982.661249
v 1900.556748 -4979.048395 -10510.864045
v 1953.533205 -5116.586830 -10709.549525
v 1809.762972 -5361.173402 -10492.997259
v 2149.490177 -5003.360199 -10883.602343
v 2198.457389 -5203.809647 -10995.407968
v 2048.351402 -5286.483757 -10820.996582
v 1693.622709 -7296.509651 -9448.347879
v 1569.001883 -7063.270435 -9587.969045
v 1799.619447 -6885.974661 -9678.623018
v 1909.828237 -7101.048301 -9476.225438
v 1288.210914 -7258.644382 -9389.618988
v 1229.980388 -6943.126197 -9442.110138
v 1476.660534 -6739.416910 -9706.615874
v 986.077019 -7144.254821 -9067.283186
v 1087.645487 -6723.025261 -9110.375814
v 1261.486482 -6476.698324 -9527.134243
v 968.106791 -6963.425915 -8665.301113
v 1244.737941 -6513.577022 -8792.648594
v 1300.740524 -6164.688404 -9233.063468
v 1256.433489 -6918.717459 -8403.642694
v 1608.023923 -6639.766395 -8657.277275
v 1586.214001 -6111.930221 -9005.047008
v 1662.610310 -7080.567927 -8433.355064
v 1931.423424 -6907.469399 -8786.525026
v 1916.642613 -6414.663486 -8952.454236
v 1950.402717 -7238.417988 -8756.331148
v 2066.510917 -7056.367273 -9138.367705
v 2115.139313 -6724.013934 -9139.615760
v 1967.607903 -7295.261512 -9187.329695
v 2068.415554 -6879.848340 -9458.286531
v 2434.041406 -5264.278586 -11129.585454
v 2518.973321 -5487.925467 -11204.082064
v 2306.881691 -5414.236000 -11051.908710
v 2207.327508 -5456.773149 -10893.988144
v 2414.737627 -5562.999890 -11061.325162
v 2356.955310 -5581.944730 -10915.899135
v 2381.457750 -5644.439346 -10794.747834
v 2457.766253 -5652.202729 -10886.229687
v 2514.360245 -5667.996548 -10797.440003
v 2572.423832 -5644.222805 -10665.614794
v 2626.157323 -5663.358449 -10792.075922
v 2692.070656 -5591.913795 -10700.071412
v 2719.404666 -5454.164801 -10560.975268
v 2815.616016 -5590.965211 -10817.420401
v 2820.272901 -5427.284528 -10718.891529
v 2758.337112 -5198.743540 -10631.201732
v 2913.654010 -5516.844468 -10943.358935
v 2809.026386 -5272.420585 -10877.130906
v 2626.151119 -5027.152411 -10832.531521
v 2867.621938 -5467.475149 -11108.760929
v 2648.033939 -5208.215675 -11058.543224
v 2387.382473 -5029.826671 -10992.857858
v 2705.428504 -5455.365759 -11219.733061
v 2188.926162 -5580.564161 -10723.180793
v 1981.680370 -5477.566689 -10624.316903
v 1769.612757 -5717.878650 -10290.318600
v 1821.225368 -6103.618103 -10101.382090
v 1644.757578 -6130.762471 -10015.931757
v 1975.967360 -5756.377245 -10408.305591
v 2416.740579 -5707.148834 -10623.603123
v 2205.737155 -5745.144270 -10524.638956
v 2025.935352 -6046.559958 -10180.699389
v 2095.725571 -6271.015164 -9958.070339
v 1896.553795 -6436.756237 -9909.306530
v 2253.196978 -5915.410852 -10283.907557
v 2601.673685 -5568.899910 -10466.304100
v 2449.878967 -5731.943296 -10386.015838
v 2306.396700 -6015.461582 -10026.833822
v 1614.150198 -5403.249634 -10156.659403
v 1826.117625 -5154.244152 -10518.091424
v 2071.636111 -5132.607544 -10866.168890
v 1751.384744 -7092.041625 -9564.635461
v 1386.518752 -7015.157300 -9544.636242
v 1125.432086 -6842.601107 -9287.863830
v 1131.392387 -6593.840885 -8938.124571
v 1415.747239 -6540.762165 -8695.486508
v 1785.171677 -6774.960158 -8688.659795
v 2031.012085 -6998.420062 -8947.763672
v 2020.493309 -7089.866616 -9324.328907
v 2352.028043 -5331.696400 -11104.725523
v 2312.558886 -5501.875283 -10985.324265
v 2427.966900 -5641.774846 -10854.560009
v 2604.901744 -5647.240870 -10740.671475
v 2768.346239 -5514.421342 -10691.456798
v 2834.395174 -5343.024400 -10786.440004
v 2742.480115 -5226.252661 -10973.993046
v 2538.965621 -5222.004662 -11112.299505
v 2095.990857 -5443.715913 -10771.981700
v 1704.016241 -5898.934177 -10150.526338
v 1867.527580 -5573.188513 -10456.005599
v 2301.529068 -5673.288704 -10678.650159
v 1955.331487 -6232.564042 -10036.186905
v 2111.638214 -5876.827300 -10351.086005
v 2517.501510 -5667.403883 -10543.253391
v 2231.798547 -6204.214049 -9870.161928
v 2379.300456 -5853.000301 -10206.330583
v 2667.119120 -5426.482916 -10421.458010
v 2363.078119 -5862.301550 -9698.518142
v 2531.795091 -5534.754122 -10074.786517
v 2688.681039 -5113.541040 -10479.324272
v 2283.675450 -5367.056666 -9663.411961
v 2506.841592 -5119.831013 -10087.089047
v 2527.448028 -4912.296512 -10677.682584
v 2048.015197 -4996.438455 -9810.845047
v 2301.164138 -4842.427848 -10256.352544
v 2265.558921 -4920.014822 -10849.400154
v 2017.045546 -4862.233640 -10450.891198
v 1761.084758 -5024.348807 -10018.109246
v 1618.330670 -7516.633352 -9328.254856
v 1174.517302 -7473.530326 -9251.283978
v 839.857129 -7380.262945 -8884.710271
v 814.043613 -7266.182767 -8434.536995
v 1117.780997 -7237.592600 -8146.849249
v 1559.344502 -7333.494128 -8194.337433
v 1879.895585 -7451.606346 -8565.110953
v 1907.958933 -7512.888022 -9044.766986
v 1758.325654 -5640.425407 -9314.990322
v 1472.991388 -5683.229016 -9530.173957
v 1397.804612 -6047.941807 -9765.776483
v 1565.856249 -6427.770955 -9865.838004
v 1846.329452 -6661.052866 -9791.815955
v 2113.175041 -6648.350137 -9591.724416
v 2196.200103 -6407.600421 -9332.094328
v 2046.637190 -5997.670439 -9216.940711
v 1445.851096 -7777.973610 -7700.732587
v 1873.612864 -7840.564497 -8190.478273
v 1911.343271 -7911.582424 -8841.725517
v 1522.467268 -7916.219883 -9230.687419
v 928.059772 -7852.558588 -9130.782676
v 492.486670 -7789.628879 -8644.938850
v 473.997772 -7763.138934 -8050.561551
v 870.685148 -7758.840297 -7657.697631
vt 0.837168 0.506409
vt 0.203488 0.517239
vt 0.761353 0.563332
vt 0.688054 0.629039
vt 0.609315 0.689601
vt 0.516298 0.720769
vt 0.419811 0.708516
vt 0.337131 0.659211
vt 0.267361 0.590098
vt 0.333135 0.114836
vt 0.681548 0.126655
vt 0.638944 0.121863
vt 0.594442 0.102576
vt 0.552431 0.080194
vt 0.507054 0.066846
vt 0.460483 0.074270
vt 0.417577 0.092659
vt 0.374998 0.109609
vt 0.556055 0.221467
vt 0.556208 0.284327
vt 0.563291 0.336729
vt 0.575453 0.403516
vt 0.641534 0.396576
vt 0.621082 0.331808
vt 0.606978 0.268951
vt 0.599544 0.202977
vt 0.709998 0.392567
vt 0.685378 0.319530
vt 0.660051 0.240523
vt 0.642830 0.167363
vt 0.770088 0.383926
vt 0.240767 0.371040
vt 0.751862 0.306661
vt 0.272923 0.297391
vt 0.713186 0.218573
vt 0.308862 0.204133
vt 0.682851 0.135378
vt 0.331621 0.123470
vt 0.311484 0.404753
vt 0.333658 0.326537
vt 0.354799 0.247848
vt 0.369067 0.173351
vt 0.379615 0.425093
vt 0.392322 0.346686
vt 0.404364 0.278391
vt 0.409978 0.209485
vt 0.443888 0.418322
vt 0.451023 0.346670
vt 0.454803 0.289868
vt 0.453794 0.224967
vt 0.511196 0.412731
vt 0.507204 0.343144
vt 0.505961 0.291440
vt 0.505286 0.227713
vt 0.944657 0.674434
vt 0.095777 0.688968
vt 0.838560 0.749756
vt 0.747505 0.845919
vt 0.646921 0.932963
vt 0.521277 0.977392
vt 0.389128 0.958195
vt 0.277985 0.883953
vt 0.188775 0.783928
vt 0.432519 0.557976
vt 0.513888 0.560895
vt 0.591808 0.540967
vt 0.663837 0.508009
vt 0.734076 0.474971
vt 0.803592 0.445102
vt 0.222147 0.444061
vt 0.291152 0.494623
vt 0.359884 0.538211
vt 0.403873 0.849119
vt 0.305274 0.786412
vt 0.223243 0.701054
vt 0.902096 0.607902
vt 0.138427 0.620970
vt 0.805716 0.670894
vt 0.721006 0.753133
vt 0.629023 0.827515
vt 0.518699 0.865148
vt 0.599187 0.362174
vt 0.585529 0.306349
vt 0.579533 0.251044
vt 0.782935 0.495644
vt 0.710523 0.541787
vt 0.638708 0.593266
vt 0.558774 0.632342
vt 0.470186 0.641547
vt 0.386437 0.618787
vt 0.314765 0.570648
vt 0.247079 0.510635
vt 0.576130 0.157894
vt 0.618321 0.149131
vt 0.661028 0.135856
vt 0.352504 0.129904
vt 0.392983 0.148856
vt 0.434458 0.157385
vt 0.480801 0.156862
vt 0.530750 0.157116
vt 0.626137 0.220276
vt 0.664260 0.358878
vt 0.642317 0.291127
vt 0.673905 0.188000
vt 0.729821 0.351017
vt 0.702407 0.271193
vt 0.341493 0.187099
vt 0.289748 0.350292
vt 0.317805 0.269731
vt 0.385046 0.230508
vt 0.354736 0.376518
vt 0.371674 0.301569
vt 0.430283 0.258077
vt 0.417343 0.381244
vt 0.426270 0.316273
vt 0.479430 0.267086
vt 0.478629 0.373706
vt 0.480138 0.317806
vt 0.531113 0.264600
vt 0.532540 0.313859
vt 0.538956 0.367462
vt 0.825568 0.586052
vt 0.743437 0.654483
vt 0.663635 0.730231
vt 0.570028 0.784983
vt 0.463838 0.795704
vt 0.364317 0.757613
vt 0.282782 0.686588
vt 0.208705 0.607471
vt 0.475403 0.482330
vt 0.548456 0.474519
vt 0.617935 0.457263
vt 0.687640 0.440566
vt 0.754852 0.423984
vt 0.266320 0.428671
vt 0.335955 0.466402
vt 0.404038 0.482740
vt 0.342281 0.874709
vt 0.247393 0.792144
vt 0.161119 0.699864
vt 0.872876 0.676343
vt 0.778965 0.757175
vt 0.687689 0.844281
vt 0.580108 0.906902
vt 0.457652 0.918981
vt 0.568796 0.364076
vt 0.591586 0.334638
vt 0.630788 0.360771
vt 0.608061 0.399527
vt 0.558874 0.310159
vt 0.581387 0.278191
vt 0.613133 0.300611
vt 0.555954 0.259192
vt 0.578328 0.214436
vt 0.602659 0.238593
vt 0.800622 0.536180
vt 0.746110 0.517124
vt 0.768886 0.459794
vt 0.820380 0.475755
vt 0.212817 0.480650
vt 0.724478 0.595294
vt 0.675085 0.567785
vt 0.699075 0.491150
vt 0.650138 0.661544
vt 0.600300 0.615646
vt 0.628316 0.525227
vt 0.564170 0.710001
vt 0.515084 0.641570
vt 0.553612 0.553388
vt 0.467294 0.719933
vt 0.426498 0.633532
vt 0.472796 0.561895
vt 0.376502 0.687542
vt 0.349395 0.597696
vt 0.395242 0.550727
vt 0.301466 0.625723
vt 0.281132 0.540631
vt 0.325366 0.518497
vt 0.232670 0.555357
vt 0.256705 0.469631
vt 0.554458 0.157864
vt 0.573437 0.091385
vt 0.597005 0.155539
vt 0.621088 0.185372
vt 0.616693 0.112219
vt 0.639766 0.141595
vt 0.664639 0.154691
vt 0.660246 0.124259
vt 0.682200 0.131016
vt 0.332378 0.119153
vt 0.348970 0.153044
vt 0.354066 0.112222
vt 0.372687 0.140018
vt 0.389347 0.193130
vt 0.396288 0.101134
vt 0.413528 0.155088
vt 0.431128 0.219518
vt 0.439030 0.083464
vt 0.456605 0.157419
vt 0.478975 0.227570
vt 0.483769 0.070558
vt 0.505899 0.156499
vt 0.531344 0.225785
vt 0.529743 0.073520
vt 0.649906 0.201581
vt 0.633276 0.255105
vt 0.652799 0.326373
vt 0.697854 0.355843
vt 0.676081 0.394866
vt 0.672326 0.280465
vt 0.698018 0.176975
vt 0.320241 0.163801
vt 0.687077 0.229071
vt 0.717465 0.312473
vt 0.760975 0.345294
vt 0.256845 0.334216
vt 0.741581 0.387846
vt 0.732524 0.262617
vt 0.290892 0.250762
vt 0.363008 0.209600
vt 0.330847 0.227514
vt 0.303671 0.311431
vt 0.322446 0.364887
vt 0.276982 0.388608
vt 0.344729 0.287175
vt 0.407506 0.247456
vt 0.379387 0.265239
vt 0.363069 0.338872
vt 0.386431 0.382774
vt 0.345942 0.417897
vt 0.398801 0.311680
vt 0.454038 0.264058
vt 0.429479 0.286012
vt 0.421832 0.348229
vt 0.447926 0.376649
vt 0.411759 0.423391
vt 0.453557 0.317574
vt 0.505456 0.267241
vt 0.480405 0.291727
vt 0.479316 0.345180
vt 0.509092 0.371087
vt 0.477512 0.415413
vt 0.506352 0.316668
vt 0.531148 0.288858
vt 0.535179 0.339946
vt 0.543504 0.408342
vt 0.869632 0.557156
vt 0.170957 0.569105
vt 0.851683 0.635894
vt 0.783003 0.617607
vt 0.763049 0.711171
vt 0.704453 0.693187
vt 0.676913 0.793189
vt 0.619366 0.762026
vt 0.575592 0.852284
vt 0.517544 0.796932
vt 0.460423 0.863755
vt 0.411800 0.782274
vt 0.352153 0.822252
vt 0.321331 0.724720
vt 0.263247 0.744857
vt 0.246098 0.646433
vt 0.182436 0.658473
vt 0.438534 0.482502
vt 0.512694 0.480308
vt 0.583325 0.466368
vt 0.652602 0.448297
vt 0.722055 0.432864
vt 0.786840 0.414514
vt 0.231457 0.407551
vt 0.301161 0.448664
vt 0.370362 0.478791
vt 0.397440 0.903366
vt 0.333556 0.921074
vt 0.292244 0.836478
vt 0.233380 0.833941
vt 0.204696 0.745381
vt 0.142276 0.736448
vt 0.117102 0.654969
vt 0.923376 0.641168
vt 0.891609 0.712095
vt 0.824148 0.714138
vt 0.793033 0.797837
vt 0.734440 0.801780
vt 0.697213 0.889441
vt 0.636861 0.880661
vt 0.584099 0.955177
vt 0.519636 0.920507
vt 0.455202 0.967793
vn -0.943679 0.326051 -0.056223
vn -0.901515 0.419282 -0.107117
vn -0.928191 0.137144 -0.345908
vn -0.931618 0.100417 -0.349292
vn -0.822003 0.519554 -0.233184
vn -0.896258 0.177516 -0.406460
vn -0.804634 -0.138359 -0.577426
vn -0.798131 -0.133800 -0.587439
vn -0.767170 -0.126499 -0.628846
vn -0.731788 0.585144 -0.349418
vn -0.854126 0.201238 -0.479554
vn -0.639777 0.607640 -0.470594
vn -0.806697 0.196444 -0.557359
vn -0.778844 -0.171701 -0.603258
vn -0.793819 -0.146822 -0.590165
vn -0.512338 0.560458 -0.650690
vn -0.729737 0.150327 -0.666998
vn -0.345891 0.431964 -0.832927
vn -0.615918 0.075724 -0.784162
vn -0.707124 -0.253634 -0.660034
vn -0.751478 -0.212057 -0.624750
vn 0.586942 -0.525181 -0.616185
vn 0.205828 -0.528315 -0.823722
vn 0.204648 -0.521863 -0.828117
vn 0.573766 -0.515089 -0.636770
vn -0.170623 -0.443481 -0.879893
vn -0.156602 -0.451936 -0.878197
vn -0.138939 -0.432156 -0.891032
vn 0.205084 -0.494788 -0.844467
vn 0.562159 -0.489258 -0.666786
vn -0.497159 -0.291042 -0.817391
vn -0.479286 -0.323333 -0.815929
vn -0.745461 -0.081660 -0.661528
vn -0.745590 -0.132308 -0.653139
vn -0.737948 -0.137394 -0.660724
vn -0.451770 -0.318908 -0.833188
vn -0.886282 0.139314 -0.441697
vn -0.900449 0.079393 -0.427654
vn -0.924406 0.339762 -0.173304
vn -0.945359 0.279547 -0.167779
vn -0.955455 0.260063 -0.139547
vn -0.908302 0.067419 -0.412846
vn -0.847049 0.510990 0.146277
vn -0.873610 0.465086 0.143182
vn -0.560513 0.645373 0.518960
vn -0.567283 0.622869 0.538725
vn -0.560353 0.596502 0.574622
vn -0.877273 0.445029 0.179835
vn -0.117187 0.647647 0.752875
vn -0.084229 0.617240 0.782254
vn 0.262704 0.552752 0.790855
vn 0.291573 0.506627 0.811366
vn 0.286036 0.472034 0.833887
vn -0.082852 0.583391 0.807954
vn 0.558098 0.409943 0.721438
vn 0.574767 0.356430 0.736615
vn 0.775273 0.233775 0.586772
vn 0.781835 0.186530 0.594929
vn 0.789301 0.157914 0.593352
vn 0.574685 0.323078 0.751903
vn 0.926660 0.009309 0.375786
vn 0.927858 -0.017923 0.372502
vn 0.970472 -0.231041 0.069321
vn 0.968789 -0.244091 0.043211
vn 0.969561 -0.244817 -0.004061
vn 0.935521 -0.030820 0.351924
vn 0.859340 -0.422051 -0.288803
vn 0.844961 -0.422813 -0.327521
vn 0.828518 -0.410024 -0.381363
vn -0.522733 0.031911 -0.851899
vn -0.671866 -0.284018 -0.684054
vn -0.218446 0.340680 -0.914450
vn -0.128000 0.347497 -0.928904
vn -0.459224 0.056926 -0.886495
vn -0.654013 -0.269826 -0.706725
vn -0.540267 -0.705571 -0.458563
vn -0.663704 -0.521139 -0.536574
vn -0.674484 -0.549250 -0.493351
vn -0.581354 -0.733187 -0.352794
vn -0.685975 -0.548187 -0.478466
vn -0.612502 -0.734388 -0.292429
vn 0.090121 -0.985089 -0.146553
vn -0.314372 -0.875447 -0.367101
vn -0.390638 -0.894027 -0.219356
vn -0.036348 -0.998940 0.028253
vn -0.452768 -0.886118 -0.098976
vn -0.127892 -0.973854 0.187757
vn 0.674036 -0.659642 0.332488
vn 0.465151 -0.875044 0.133909
vn 0.298735 -0.907879 0.294132
vn 0.521492 -0.721354 0.455735
vn 0.206885 -0.892877 0.399961
vn 0.448938 -0.728966 0.516781
vn 0.928453 -0.009735 0.371321
vn 0.821085 -0.379145 0.426695
vn 0.725246 -0.453342 0.518169
vn 0.902839 -0.077605 0.422917
vn 0.678289 -0.476251 0.559561
vn 0.887366 -0.102446 0.449540
vn 0.807978 0.585751 -0.063768
vn 0.923900 0.333521 0.187541
vn 0.943387 0.277446 0.181781
vn 0.852632 0.509934 -0.113956
vn 0.948225 0.257502 0.185907
vn 0.866553 0.483947 -0.121985
vn 0.345918 0.769245 -0.537217
vn 0.607387 0.730562 -0.312027
vn 0.678163 0.623578 -0.388902
vn 0.441087 0.639224 -0.629948
vn 0.706389 0.587345 -0.395021
vn 0.489211 0.600959 -0.632076
vn 0.019126 0.684019 -0.729214
vn 0.135715 0.553028 -0.822035
vn 0.204734 0.526056 -0.825439
vn -0.655733 -0.480176 -0.582619
vn -0.642380 -0.432672 -0.632568
vn -0.508687 -0.659347 -0.553624
vn -0.465042 -0.607429 -0.644023
vn -0.539391 -0.349686 -0.766013
vn -0.467655 -0.323039 -0.822766
vn -0.599303 -0.371333 -0.709188
vn -0.349750 -0.531335 -0.771594
vn -0.258970 -0.487607 -0.833771
vn -0.172148 -0.439591 -0.881547
vn -0.625957 -0.394632 -0.672639
vn -0.412897 -0.565313 -0.714099
vn -0.266954 -0.833685 -0.483431
vn -0.194375 -0.774729 -0.601676
vn 0.184471 -0.944444 -0.272020
vn 0.279238 -0.866566 -0.413629
vn 0.073167 -0.583157 -0.809058
vn 0.149875 -0.514599 -0.844231
vn -0.016270 -0.656433 -0.754209
vn 0.410109 -0.697308 -0.587854
vn 0.461027 -0.610088 -0.644396
vn 0.508476 -0.527878 -0.680292
vn -0.105477 -0.716837 -0.689216
vn 0.353379 -0.779629 -0.517013
vn 0.596252 -0.802704 0.012241
vn 0.687241 -0.717076 -0.116200
vn 0.789846 -0.575039 0.213247
vn 0.861799 -0.494696 0.112155
vn 0.766441 -0.533385 -0.357867
vn 0.784193 -0.462900 -0.413238
vn 0.752507 -0.592145 -0.288266
vn 0.923038 -0.383645 0.028590
vn 0.940241 -0.340483 0.004285
vn 0.956074 -0.291429 -0.031482
vn 0.731879 -0.645904 -0.217166
vn 0.900732 -0.431326 0.051390
vn 0.887432 -0.308999 0.342029
vn 0.924286 -0.245731 0.292083
vn 0.929860 0.041870 0.365523
vn 0.912803 0.076731 0.401128
vn 0.937827 -0.107701 0.329971
vn 0.940225 -0.069066 0.333477
vn 0.940956 -0.147867 0.304528
vn 0.861232 0.094665 0.499318
vn 0.823915 0.106510 0.556614
vn 0.800811 0.124653 0.585802
vn 0.940247 -0.192773 0.280667
vn 0.892450 0.087830 0.442513
vn 0.878972 0.395148 0.266956
vn 0.823557 0.418030 0.383413
vn 0.722160 0.687327 0.077893
vn 0.640831 0.726810 0.247151
vn 0.641221 0.324000 0.695600
vn 0.577231 0.311685 0.754756
vn 0.726295 0.353125 0.589744
vn 0.512162 0.645806 0.566238
vn 0.377030 0.560674 0.737220
vn 0.276613 0.491776 0.825616
vn 0.782655 0.391860 0.483629
vn 0.589575 0.703912 0.396117
vn 0.479234 0.867557 -0.132964
vn 0.366880 0.928737 0.053357
vn 0.185722 0.924637 -0.332497
vn 0.042803 0.989095 -0.140921
vn 0.030270 0.764331 0.644113
vn -0.077737 0.632662 0.770517
vn 0.187817 0.889061 0.417486
vn -0.209048 0.959606 0.188298
vn -0.375267 0.828976 0.414697
vn -0.483130 0.674131 0.558688
vn 0.290825 0.932437 0.214436
vn -0.070938 0.997468 0.005041
vn -0.157522 0.841130 -0.517385
vn -0.312719 0.894153 -0.320463
vn -0.440958 0.877580 -0.188176
vn -0.583127 0.811269 -0.042503
vn -0.723566 0.676162 0.138767
vn -0.807094 0.536799 0.245858
vn 0.208630 -0.475382 -0.854684
vn -0.186864 -0.364870 -0.912114
vn 0.615880 -0.477767 -0.626443
vn 0.679396 -0.270951 -0.681914
vn 0.234449 -0.271169 -0.933542
vn -0.185608 -0.136557 -0.973089
vn -0.508522 -0.180628 -0.841890
vn -0.734487 0.049039 -0.676848
vn -0.495647 0.057215 -0.866637
vn -0.696193 0.263279 -0.667832
vn -0.856707 0.270688 -0.439069
vn -0.879750 0.452394 -0.146214
vn -0.802101 0.440826 -0.402872
vn -0.811188 0.577139 -0.094257
vn -0.789529 0.586440 0.180922
vn -0.535778 0.674900 0.507398
vn -0.712623 0.666625 0.218584
vn -0.497783 0.717544 0.487178
vn -0.163970 0.682220 0.712524
vn 0.201418 0.618699 0.759370
vn -0.200064 0.726888 0.656969
vn 0.127993 0.694265 0.708247
vn 0.513818 0.500035 0.697105
vn 0.757572 0.330093 0.563137
vn 0.440050 0.613660 0.655574
vn 0.703846 0.483836 0.520099
vn 0.927921 0.100192 0.359061
vn 0.986295 -0.148027 0.072875
vn 0.898379 0.301144 0.319731
vn 0.994815 0.088043 0.050908
vn 0.892307 -0.356853 -0.276486
vn 0.946313 -0.126757 -0.297361
vn -0.096559 0.577374 0.810750
vn -0.533945 0.600134 0.595601
vn 0.264364 0.462879 0.846082
vn -0.854828 0.462431 0.235429
vn -0.957441 0.273495 -0.092231
vn -0.918493 0.077003 -0.387866
vn -0.739707 -0.129156 -0.660418
vn -0.436768 -0.310323 -0.844354
vn -0.134398 -0.417272 -0.898789
vn 0.193909 -0.480732 -0.855158
vn 0.543915 -0.482115 -0.686820
vn 0.807791 -0.413516 -0.420093
vn 0.966507 -0.253573 -0.039563
vn 0.941545 -0.042302 0.334220
vn 0.794215 0.140554 0.591158
vn 0.566103 0.308940 0.764254
vn 0.368950 0.689260 0.623536
vn 0.635147 0.596902 0.490200
vn 0.070685 0.742837 0.665731
vn 0.030859 0.757743 0.651823
vn 0.311441 0.716702 0.623974
vn 0.573243 0.642847 0.508075
vn 0.833979 0.470124 0.288899
vn 0.946483 0.321642 0.026767
vn 0.785737 0.533686 0.312723
vn 0.911434 0.407662 0.055671
vn 0.937154 0.152728 -0.313715
vn 0.707728 0.025124 -0.706038
vn 0.923705 0.253080 -0.287610
vn 0.717885 0.130280 -0.683862
vn 0.267155 0.015497 -0.963529
vn -0.156642 0.131258 -0.978895
vn 0.277730 0.116563 -0.953561
vn -0.161732 0.226386 -0.960517
vn -0.458647 0.279552 -0.843501
vn -0.651866 0.425841 -0.627479
vn -0.467097 0.359450 -0.807847
vn -0.657388 0.489133 -0.573228
vn -0.754851 0.552723 -0.353125
vn -0.756289 0.652499 -0.047667
vn -0.746666 0.597235 -0.292918
vn -0.731979 0.681310 0.004945
vn -0.655874 0.715619 0.240246
vn -0.469338 0.749514 0.466852
vn -0.627787 0.731782 0.265288
vn -0.454114 0.759223 0.466220
vn -0.220888 0.759240 0.612179
vn -0.231170 0.768299 0.596889
s 1
usemtl initialShadingGroup
f 20/22/1 137/146/2 209/82/3 140/149/4
f 137/146/2 19/21/5 138/147/6 209/82/3
f 209/82/3 138/147/6 22/24/7 139/148/8
f 140/149/4 209/82/3 139/148/8 21/23/9
f 19/21/5 141/150/10 210/83/11 138/147/6
f 141/150/10 18/20/12 142/151/13 210/83/11
f 210/83/11 142/151/13 23/25/14 143/152/15
f 138/147/6 210/83/11 143/152/15 22/24/7
f 18/20/12 144/153/16 211/84/17 142/151/13
f 144/153/16 17/19/18 145/154/19 211/84/17
f 211/84/17 145/154/19 24/26/20 146/155/21
f 142/151/13 211/84/17 146/155/21 23/25/14
f 1/1/22 147/156/23 212/85/24 150/159/25
f 147/156/23 2/3/26 148/157/27 212/85/24
f 212/85/24 148/157/27 61/68/28 149/158/29
f 150/159/25 212/85/24 149/158/29 62/69/30
f 2/3/26 151/161/31 213/86/32 148/157/27
f 151/161/31 3/4/33 152/162/34 213/86/32
f 213/86/32 152/162/34 60/67/35 153/163/36
f 148/157/27 213/86/32 153/163/36 61/68/28
f 3/4/33 154/164/37 214/87/38 152/162/34
f 154/164/37 4/5/39 155/165/40 214/87/38
f 214/87/38 155/165/40 59/66/41 156/166/42
f 152/162/34 214/87/38 156/166/42 60/67/35
f 4/5/39 157/167/43 215/88/44 155/165/40
f 157/167/43 5/6/45 158/168/46 215/88/44
f 215/88/44 158/168/46 58/65/47 159/169/48
f 155/165/40 215/88/44 159/169/48 59/66/41
f 5/6/45 160/170/49 216/89/50 158/168/46
f 160/170/49 6/7/51 161/171/52 216/89/50
f 216/89/50 161/171/52 57/64/53 162/172/54
f 158/168/46 216/89/50 162/172/54 58/65/47
f 6/7/51 163/173/55 217/90/56 161/171/52
f 163/173/55 7/8/57 164/174/58 217/90/56
f 217/90/56 164/174/58 64/72/59 165/175/60
f 161/171/52 217/90/56 165/175/60 57/64/53
f 7/8/57 166/176/61 218/91/62 164/174/58
f 166/176/61 8/9/63 167/177/64 218/91/62
f 218/91/62 167/177/64 63/71/65 168/178/66
f 164/174/58 218/91/62 168/178/66 64/72/59
f 8/9/63 169/179/67 219/92/68 167/177/64
f 169/179/67 1/2/22 150/160/25 219/92/68
f 219/92/68 150/160/25 62/70/30 170/180/69
f 167/177/64 219/92/68 170/180/69 63/71/65
f 24/26/20 145/154/19 220/93/70 173/183/71
f 145/154/19 17/19/18 171/181/72 220/93/70
f 220/93/70 171/181/72 12/14/73 172/182/74
f 173/183/71 220/93/70 172/182/74 11/13/75
f 28/30/76 174/184/77 221/94/78 176/186/79
f 174/184/77 24/26/20 173/183/71 221/94/78
f 221/94/78 173/183/71 11/13/75 175/185/80
f 176/186/79 221/94/78 175/185/80 10/12/81
f 32/37/82 177/187/83 222/95/84 179/189/85
f 177/187/83 28/30/76 176/186/79 222/95/84
f 222/95/84 176/186/79 10/12/81 178/188/86
f 179/189/85 222/95/84 178/188/86 9/11/87
f 36/42/88 180/191/89 223/96/90 182/193/91
f 180/191/89 32/38/82 179/190/85 223/96/90
f 223/96/90 179/190/85 9/10/87 181/192/92
f 182/193/91 223/96/90 181/192/92 16/18/93
f 40/46/94 183/194/95 224/97/96 185/196/97
f 183/194/95 36/42/88 182/193/91 224/97/96
f 224/97/96 182/193/91 16/18/93 184/195/98
f 185/196/97 224/97/96 184/195/98 15/17/99
f 44/50/100 186/197/101 225/98/102 188/199/103
f 186/197/101 40/46/94 185/196/97 225/98/102
f 225/98/102 185/196/97 15/17/99 187/198/104
f 188/199/103 225/98/102 187/198/104 14/16/105
f 48/54/106 189/200/107 226/99/108 191/202/109
f 189/200/107 44/50/100 188/199/103 226/99/108
f 226/99/108 188/199/103 14/16/105 190/201/110
f 191/202/109 226/99/108 190/201/110 13/15/111
f 17/19/18 192/203/112 227/100/113 171/181/72
f 192/203/112 48/54/106 191/202/109 227/100/113
f 227/100/113 191/202/109 13/15/111 193/204/114
f 171/181/72 227/100/113 193/204/114 12/14/73
f 23/25/14 146/155/21 228/101/115 195/206/116
f 146/155/21 24/26/20 174/184/77 228/101/115
f 228/101/115 174/184/77 28/30/76 194/205/117
f 195/206/116 228/101/115 194/205/117 27/29/118
f 21/23/9 139/148/8 229/102/119 198/209/120
f 139/148/8 22/24/7 196/207/121 229/102/119
f 229/102/119 196/207/121 26/28/122 197/208/123
f 198/209/120 229/102/119 197/208/123 25/27/124
f 22/24/7 143/152/15 230/103/125 196/207/121
f 143/152/15 23/25/14 195/206/116 230/103/125
f 230/103/125 195/206/116 27/29/118 199/210/126
f 196/207/121 230/103/125 199/210/126 26/28/122
f 27/29/118 194/205/117 231/104/127 201/213/128
f 194/205/117 28/30/76 177/187/83 231/104/127
f 231/104/127 177/187/83 32/37/82 200/211/129
f 201/213/128 231/104/127 200/211/129 31/35/130
f 25/27/124 197/208/123 232/105/131 204/217/132
f 197/208/123 26/28/122 202/214/133 232/105/131
f 232/105/131 202/214/133 30/33/134 203/215/135
f 204/217/132 232/105/131 203/215/135 29/31/136
f 26/28/122 199/210/126 233/106/137 202/214/133
f 199/210/126 27/29/118 201/213/128 233/106/137
f 233/106/137 201/213/128 31/35/130 205/218/138
f 202/214/133 233/106/137 205/218/138 30/33/134
f 31/36/130 200/212/129 234/107/139 207/221/140
f 200/212/129 32/38/82 180/191/89 234/107/139
f 234/107/139 180/191/89 36/42/88 206/220/141
f 207/221/140 234/107/139 206/220/141 35/41/142
f 29/32/136 203/216/135 235/108/143 74/224/144
f 203/216/135 30/34/134 208/222/145 235/108/143
f 235/108/143 208/222/145 34/40/146 73/223/147
f 74/224/144 235/108/143 73/223/147 33/39/148
f 30/34/134 205/219/138 236/109/149 208/222/145
f 205/219/138 31/36/130 207/221/140 236/109/149
f 236/109/149 207/221/140 35/41/142 75/225/150
f 208/222/145 236/109/149 75/225/150 34/40/146
f 35/41/142 206/220/141 237/110/151 77/227/152
f 206/220/141 36/42/88 183/194/95 237/110/151
f 237/110/151 183/194/95 40/46/94 76/226/153
f 77/227/152 237/110/151 76/226/153 39/45/154
f 33/39/148 73/223/147 238/111/155 80/230/156
f 73/223/147 34/40/146 78/228/157 238/111/155
f 238/111/155 78/228/157 38/44/158 79/229/159
f 80/230/156 238/111/155 79/229/159 37/43/160
f 34/40/146 75/225/150 239/112/161 78/228/157
f 75/225/150 35/41/142 77/227/152 239/112/161
f 239/112/161 77/227/152 39/45/154 81/231/162
f 78/228/157 239/112/161 81/231/162 38/44/158
f 39/45/154 76/226/153 240/113/163 83/233/164
f 76/226/153 40/46/94 186/197/101 240/113/163
f 240/113/163 186/197/101 44/50/100 82/232/165
f 83/233/164 240/113/163 82/232/165 43/49/166
f 37/43/160 79/229/159 241/114/167 86/236/168
f 79/229/159 38/44/158 84/234/169 241/114/167
f 241/114/167 84/234/169 42/48/170 85/235/171
f 86/236/168 241/114/167 85/235/171 41/47/172
f 38/44/158 81/231/162 242/115/173 84/234/169
f 81/231/162 39/45/154 83/233/164 242/115/173
f 242/115/173 83/233/164 43/49/166 87/237/174
f 84/234/169 242/115/173 87/237/174 42/48/170
f 43/49/166 82/232/165 243/116/175 89/239/176
f 82/232/165 44/50/100 189/200/107 243/116/175
f 243/116/175 189/200/107 48/54/106 88/238/177
f 89/239/176 243/116/175 88/238/177 47/53/178
f 41/47/172 85/235/171 244/117/179 92/242/180
f 85/235/171 42/48/170 90/240/181 244/117/179
f 244/117/179 90/240/181 46/52/182 91/241/183
f 92/242/180 244/117/179 91/241/183 45/51/184
f 42/48/170 87/237/174 245/118/185 90/240/181
f 87/237/174 43/49/166 89/239/176 245/118/185
f 245/118/185 89/239/176 47/53/178 93/243/186
f 90/240/181 245/118/185 93/243/186 46/52/182
f 17/19/18 144/153/16 246/119/187 192/203/112
f 144/153/16 18/20/12 94/244/188 246/119/187
f 246/119/187 94/244/188 47/53/178 88/238/177
f 192/203/112 246/119/187 88/238/177 48/54/106
f 18/20/12 141/150/10 247/120/189 94/244/188
f 141/150/10 19/21/5 95/245/190 247/120/189
f 247/120/189 95/245/190 46/52/182 93/243/186
f 94/244/188 247/120/189 93/243/186 47/53/178
f 19/21/5 137/146/2 248/121/191 95/245/190
f 137/146/2 20/22/1 96/246/192 248/121/191
f 248/121/191 96/246/192 45/51/184 91/241/183
f 95/245/190 248/121/191 91/241/183 46/52/182
f 2/3/26 147/156/23 249/122/193 99/250/194
f 147/156/23 1/1/22 97/247/195 249/122/193
f 249/122/193 97/247/195 68/76/196 98/249/197
f 99/250/194 249/122/193 98/249/197 69/78/198
f 3/4/33 151/161/31 250/123/199 101/252/200
f 151/161/31 2/3/26 99/250/194 250/123/199
f 250/123/199 99/250/194 69/78/198 100/251/201
f 101/252/200 250/123/199 100/251/201 70/79/202
f 4/5/39 154/164/37 251/124/203 103/254/204
f 154/164/37 3/4/33 101/252/200 251/124/203
f 251/124/203 101/252/200 70/79/202 102/253/205
f 103/254/204 251/124/203 102/253/205 71/80/206
f 5/6/45 157/167/43 252/125/207 105/256/208
f 157/167/43 4/5/39 103/254/204 252/125/207
f 252/125/207 103/254/204 71/80/206 104/255/209
f 105/256/208 252/125/207 104/255/209 72/81/210
f 6/7/51 160/170/49 253/126/211 107/258/212
f 160/170/49 5/6/45 105/256/208 253/126/211
f 253/126/211 105/256/208 72/81/210 106/257/213
f 107/258/212 253/126/211 106/257/213 65/73/214
f 7/8/57 163/173/55 254/127/215 109/260/216
f 163/173/55 6/7/51 107/258/212 254/127/215
f 254/127/215 107/258/212 65/73/214 108/259/217
f 109/260/216 254/127/215 108/259/217 66/74/218
f 8/9/63 166/176/61 255/128/219 111/262/220
f 166/176/61 7/8/57 109/260/216 255/128/219
f 255/128/219 109/260/216 66/74/218 110/261/221
f 111/262/220 255/128/219 110/261/221 67/75/222
f 1/2/22 169/179/67 256/129/223 97/248/195
f 169/179/67 8/9/63 111/262/220 256/129/223
f 256/129/223 111/262/220 67/75/222 112/263/224
f 97/248/195 256/129/223 112/263/224 68/77/196
f 58/65/47 162/172/54 257/130/225 114/265/226
f 162/172/54 57/64/53 113/264/227 257/130/225
f 257/130/225 113/264/227 41/47/172 92/242/180
f 114/265/226 257/130/225 92/242/180 45/51/184
f 59/66/41 159/169/48 258/131/228 115/266/229
f 159/169/48 58/65/47 114/265/226 258/131/228
f 258/131/228 114/265/226 45/51/184 96/246/192
f 115/266/229 258/131/228 96/246/192 20/22/1
f 60/67/35 156/166/42 259/132/230 116/267/231
f 156/166/42 59/66/41 115/266/229 259/132/230
f 259/132/230 115/266/229 20/22/1 140/149/4
f 116/267/231 259/132/230 140/149/4 21/23/9
f 61/68/28 153/163/36 260/133/232 117/268/233
f 153/163/36 60/67/35 116/267/231 260/133/232
f 260/133/232 116/267/231 21/23/9 198/209/120
f 117/268/233 260/133/232 198/209/120 25/27/124
f 62/69/30 149/158/29 261/134/234 118/269/235
f 149/158/29 61/68/28 117/268/233 261/134/234
f 261/134/234 117/268/233 25/27/124 204/217/132
f 118/269/235 261/134/234 204/217/132 29/31/136
f 63/71/65 170/180/69 262/135/236 119/271/237
f 170/180/69 62/70/30 118/270/235 262/135/236
f 262/135/236 118/270/235 29/32/136 74/224/144
f 119/271/237 262/135/236 74/224/144 33/39/148
f 64/72/59 168/178/66 263/136/238 120/272/239
f 168/178/66 63/71/65 119/271/237 263/136/238
f 263/136/238 119/271/237 33/39/148 80/230/156
f 120/272/239 263/136/238 80/230/156 37/43/160
f 57/64/53 165/175/60 264/137/240 113/264/227
f 165/175/60 64/72/59 120/272/239 264/137/240
f 264/137/240 120/272/239 37/43/160 86/236/168
f 113/264/227 264/137/240 86/236/168 41/47/172
f 66/74/218 108/259/217 265/138/241 123/275/242
f 108/259/217 65/73/214 121/273/243 265/138/241
f 265/138/241 121/273/243 54/61/244 122/274/245
f 123/275/242 265/138/241 122/274/245 55/62/246
f 67/75/222 110/261/221 266/139/247 125/277/248
f 110/261/221 66/74/218 123/275/242 266/139/247
f 266/139/247 123/275/242 55/62/246 124/276/249
f 125/277/248 266/139/247 124/276/249 56/63/250
f 68/77/196 112/263/224 267/140/251 127/279/252
f 112/263/224 67/75/222 125/277/248 267/140/251
f 267/140/251 125/277/248 56/63/250 126/278/253
f 127/279/252 267/140/251 126/278/253 49/56/254
f 69/78/198 98/249/197 268/141/255 129/282/256
f 98/249/197 68/76/196 127/280/252 268/141/255
f 268/141/255 127/280/252 49/55/254 128/281/257
f 129/282/256 268/141/255 128/281/257 50/57/258
f 70/79/202 100/251/201 269/142/259 131/284/260
f 100/251/201 69/78/198 129/282/256 269/142/259
f 269/142/259 129/282/256 50/57/258 130/283/261
f 131/284/260 269/142/259 130/283/261 51/58/262
f 71/80/206 102/253/205 270/143/263 133/286/264
f 102/253/205 70/79/202 131/284/260 270/143/263
f 270/143/263 131/284/260 51/58/262 132/285/265
f 133/286/264 270/143/263 132/285/265 52/59/266
f 72/81/210 104/255/209 271/144/267 135/288/268
f 104/255/209 71/80/206 133/286/264 271/144/267
f 271/144/267 133/286/264 52/59/266 134/287/269
f 135/288/268 271/144/267 134/287/269 53/60/270
f 65/73/214 106/257/213 272/145/271 121/273/243
f 106/257/213 72/81/210 135/288/268 272/145/271
f 272/145/271 135/288/268 53/60/270 136/289/272
f 121/273/243 272/145/271 136/289/272 54/61/244
