# This file uses centimeters as units for non-parametric coordinates.

mtllib Lava_Cap_Volcanoes.mtl
v 2.858130 0.000000 -0.928663
v 2.431271 0.000000 -1.766422
v 1.766422 0.000000 -2.431271
v 0.928663 0.000000 -2.858130
v 0.000000 0.000000 -3.005216
v -0.928663 0.000000 -2.858130
v -1.766421 0.000000 -2.431270
v -2.431270 0.000000 -1.766421
v -2.858129 0.000000 -0.928662
v -3.005215 0.000000 0.000000
v -2.858129 0.000000 0.928662
v -2.431270 0.000000 1.766421
v -1.766421 0.000000 2.431270
v -0.928662 0.000000 2.858129
v -0.000000 0.000000 3.005215
v 0.928662 0.000000 2.858129
v 1.766421 0.000000 2.431270
v 2.431269 0.000000 1.766421
v 2.858129 0.000000 0.928662
v 3.005214 0.000000 0.000000
v 0.000000 0.000000 0.000000
vt 0.628703 0.109087
vt 0.743563 0.165715
vt 0.507367 0.500000
vt 0.835303 0.255065
vt 0.501966 0.090725
vt 0.894942 0.368390
vt 0.375757 0.112425
vt 0.916642 0.494599
vt 0.262431 0.172064
vt 0.898279 0.621336
vt 0.173082 0.263803
vt 0.841652 0.736197
vt 0.116454 0.378664
vt 0.752302 0.827936
vt 0.098091 0.505401
vt 0.638976 0.887575
vt 0.119792 0.631609
vt 0.512767 0.909275
vt 0.179431 0.744935
vt 0.386030 0.890913
vt 0.271170 0.834285
vn 0.000000 1.000000 0.000000
vn 0.000000 1.000000 0.000000
vn 0.000000 1.000000 0.000000
vn 0.000000 1.000000 0.000000
vn 0.000000 1.000000 0.000000
vn 0.000000 1.000000 0.000000
vn 0.000000 1.000000 0.000000
vn 0.000000 1.000000 0.000000
vn 0.000000 1.000000 0.000000
vn 0.000000 1.000000 0.000000
vn 0.000000 1.000000 0.000000
vn 0.000000 1.000000 0.000000
vn 0.000000 1.000000 0.000000
vn 0.000000 1.000000 0.000000
vn 0.000000 1.000000 0.000000
vn 0.000000 1.000000 0.000000
vn 0.000000 1.000000 0.000000
vn 0.000000 1.000000 0.000000
vn 0.000000 1.000000 0.000000
vn 0.000000 1.000000 0.000000
vn 0.000000 1.000000 0.000000
s 1
usemtl initialShadingGroup
f 1/1/1 2/2/2 21/3/3
f 2/2/2 3/4/4 21/3/3
f 3/4/4 4/6/5 21/3/3
f 4/6/5 5/8/6 21/3/3
f 5/8/6 6/10/7 21/3/3
f 6/10/7 7/12/8 21/3/3
f 7/12/8 8/14/9 21/3/3
f 8/14/9 9/16/10 21/3/3
f 9/16/10 10/18/11 21/3/3
f 10/18/11 11/20/12 21/3/3
f 11/20/12 12/21/13 21/3/3
f 12/21/13 13/19/14 21/3/3
f 13/19/14 14/17/15 21/3/3
f 14/17/15 15/15/16 21/3/3
f 15/15/16 16/13/17 21/3/3
f 16/13/17 17/11/18 21/3/3
f 17/11/18 18/9/19 21/3/3
f 18/9/19 19/7/20 21/3/3
f 19/7/20 20/5/21 21/3/3
f 20/5/21 1/1/1 21/3/3
